<?xml version="1.0" encoding="utf-8"?>
<!-- Generator: Adobe Illustrator 24.0.1, SVG Export Plug-In . SVG Version: 6.00 Build 0)  -->
<svg version="1.1" xmlns="http://www.w3.org/2000/svg" xmlns:xlink="http://www.w3.org/1999/xlink" x="0px" y="0px"
	 viewBox="0 0 1920 1080" style="enable-background:new 0 0 1920 1080;" xml:space="preserve">
<style type="text/css">
	.st0{display:none;}
	.st1{display:inline;fill:#F97879;}
	.st2{fill:none;stroke:#B8A182;stroke-width:8;stroke-miterlimit:10;stroke-dasharray:15,3,0;}
	.st3{fill:#87A9BD;}
	.st4{fill:#5F89A1;}
	.st5{fill:#F82E30;}
	.st6{opacity:0.2;}
	.st7{fill:#38383E;}
	.st8{fill:#F2F2F2;stroke:#38383E;stroke-width:14;stroke-linejoin:round;stroke-miterlimit:10;}
	.st9{fill:#CCCCCC;}
	.st10{fill:#F2F2F2;}
	.st11{fill:none;}
	.st12{opacity:0.2;fill:#CCCCCC;}
	.st13{fill:#E6E6E6;}
	.st14{fill:#F85657;}
	.st15{fill:#F2D9BB;}
	.st16{fill:#376C8A;}
	.st17{fill:#678FA5;}
	.st18{fill:#8E908F;}
	.st19{fill:#F97879;}
	.st20{fill:#E3AD6B;}
	.st21{fill:#F2F2F2;stroke:#121514;stroke-width:5;stroke-linejoin:round;stroke-miterlimit:10;}
	.st22{opacity:0.15;}
	.st23{opacity:0.3;}
	.st24{fill:#E9BE8B;}
	.st25{fill:#F3DDC2;}
	.st26{fill:#2B546A;}
	.st27{fill:#EDCBA1;}
	.st28{fill:#7AA0B6;}
	.st29{fill:#C3A490;}
	.st30{fill:#202623;}
	.st31{fill:none;stroke:#202623;stroke-width:3;stroke-linejoin:round;stroke-miterlimit:10;}
	.st32{fill:none;stroke:#E9BE8B;stroke-width:7;stroke-miterlimit:10;}
	.st33{fill:none;stroke:#202623;stroke-width:2;stroke-linecap:round;stroke-linejoin:round;stroke-miterlimit:10;}
	.st34{fill:none;stroke:#121514;stroke-width:2;stroke-linecap:round;stroke-linejoin:round;stroke-miterlimit:10;}
	.st35{fill:#537D97;stroke:#202623;stroke-width:2;stroke-linecap:round;stroke-linejoin:round;stroke-miterlimit:10;}
	.st36{fill:#376C8A;stroke:#2B546A;stroke-width:3;stroke-miterlimit:10;}
	.st37{fill:#376C8A;stroke:#2B546A;stroke-width:7;stroke-linecap:round;stroke-linejoin:round;stroke-miterlimit:10;}
	.st38{fill:#4B7A95;}
	.st39{fill:#376C8A;stroke:#2B546A;stroke-width:6;stroke-linecap:round;stroke-linejoin:round;stroke-miterlimit:10;}
	.st40{opacity:0.25;}
	.st41{fill:#E3AD6B;stroke:#29322E;stroke-width:5;stroke-miterlimit:10;}
	.st42{fill:#8E908F;stroke:#38383E;stroke-width:5;stroke-miterlimit:10;}
</style>
<g id="Layer_1">
</g>
<g id="Layer_4" class="st0">
	<rect class="st1" width="1920" height="1080"/>
</g>
<g id="Layer_12">
	<line class="st2" x1="55.83" y1="506.29" x2="55.83" y2="820.94"/>
	<line class="st2" x1="57.26" y1="816.21" x2="213.56" y2="816.21"/>
	<line class="st2" x1="256.58" y1="61.51" x2="256.58" y2="177.44"/>
	<line class="st2" x1="275.22" y1="57.96" x2="1311.94" y2="59.14"/>
	<line class="st2" x1="405.7" y1="951.06" x2="405.7" y2="1076.45"/>
	<line class="st2" x1="424.34" y1="1077.63" x2="1191.49" y2="1077.63"/>
	<line class="st2" x1="1184.32" y1="996.01" x2="1184.32" y2="1080"/>
	<line class="st2" x1="1618.8" y1="121.84" x2="1864" y2="121.84"/>
	<line class="st2" x1="1864" y1="120.66" x2="1864" y2="921.49"/>
	<line class="st2" x1="1408.01" y1="914.39" x2="1861.13" y2="914.39"/>
</g>
<g id="Layer_11">
	<rect x="37.19" y="190.45" class="st3" width="77.43" height="63.88"/>
	<path class="st4" d="M743.58,253.14H171.07c-6.6,0-12-5.4-12-12v-36.33c0-6.6,5.4-12,12-12h572.51c6.6,0,12,5.4,12,12v36.33
		C755.58,247.74,750.18,253.14,743.58,253.14z"/>
	<rect x="37.19" y="295.73" class="st3" width="77.43" height="63.88"/>
	<path class="st4" d="M743.58,358.42H171.07c-6.6,0-12-5.4-12-12v-36.33c0-6.6,5.4-12,12-12h572.51c6.6,0,12,5.4,12,12v36.33
		C755.58,353.02,750.18,358.42,743.58,358.42z"/>
	<rect x="37.19" y="398.64" class="st3" width="77.43" height="63.88"/>
	<path class="st4" d="M743.58,461.34H171.07c-6.6,0-12-5.4-12-12v-36.33c0-6.6,5.4-12,12-12h572.51c6.6,0,12,5.4,12,12v36.33
		C755.58,455.94,750.18,461.34,743.58,461.34z"/>
	<path class="st5" d="M81.43,238.14L81.43,238.14c-1.98,2.83-6.4,3.8-9.83,2.17l-40.01-19.06c-3.43-1.63-4.61-5.28-2.63-8.11h0
		c1.98-2.83,6.4-3.8,9.83-2.17l40.01,19.06C82.22,231.66,83.41,235.31,81.43,238.14z"/>
	<path class="st5" d="M71.86,240.41L71.86,240.41c-3.43-1.63-4.61-5.28-2.63-8.11l52.88-75.56c1.98-2.83,6.4-3.8,9.83-2.17l0,0
		c3.43,1.63,4.61,5.28,2.63,8.11l-52.88,75.56C79.7,241.07,75.28,242.04,71.86,240.41z"/>
	<path class="st5" d="M87.16,441.6L87.16,441.6c-1.98,2.83-6.4,3.8-9.83,2.17l-40.01-19.06c-3.43-1.63-4.61-5.28-2.63-8.11l0,0
		c1.98-2.83,6.4-3.8,9.83-2.17l40.01,19.06C87.96,435.12,89.14,438.77,87.16,441.6z"/>
	<path class="st5" d="M77.59,443.87L77.59,443.87c-3.43-1.63-4.61-5.28-2.63-8.11l52.88-75.56c1.98-2.83,6.4-3.8,9.83-2.17h0
		c3.43,1.63,4.61,5.28,2.63,8.11L87.42,441.7C85.44,444.53,81.02,445.51,77.59,443.87z"/>
</g>
<g id="Monitor_1_">
	<g class="st6">
		<g>
			<path class="st7" d="M964.24,641.12H405.48c0,0,2.73,67.98,38.27,67.98h522.1"/>
			<path class="st7" d="M946.1,641.12h558.76c0,0-2.73,67.91-38.27,67.91h-522.1"/>
		</g>
		<path class="st8" d="M1482.81,653.19H426.92c-6.6,0-12-5.4-12-12V142.1c0-6.6,5.4-12,12-12h1055.89c6.6,0,12,5.4,12,12v499.09
			C1494.81,647.79,1489.41,653.19,1482.81,653.19z"/>
	</g>
	<path class="st9" d="M1164.67,849.33H725.19c-4.02,0-7.31-3.29-7.31-7.31v-19.64c0-4.02,3.29-7.31,7.31-7.31h439.48
		c4.02,0,7.31,3.29,7.31,7.31v19.64C1171.98,846.04,1168.69,849.33,1164.67,849.33z"/>
	<g>
		<polygon class="st10" points="859.09,700.86 815.78,815.07 944.93,815.07 944.93,700.86 		"/>
		<polygon class="st10" points="1030.77,700.86 1074.07,815.07 944.93,815.07 944.93,700.86 		"/>
	</g>
	<g>
		<g>
			<path class="st7" d="M951.47,631.68H392.71c0,0,2.73,67.98,38.27,67.98h522.1"/>
			<path class="st7" d="M933.33,631.68h558.76c0,0-2.73,67.91-38.27,67.91h-522.1"/>
		</g>
		<path class="st8" d="M1470.03,643.75H414.14c-6.6,0-12-5.4-12-12V132.66c0-6.6,5.4-12,12-12h1055.89c6.6,0,12,5.4,12,12v499.09
			C1482.03,638.35,1476.63,643.75,1470.03,643.75z"/>
	</g>
	<path class="st11" d="M382.76,627.76"/>
	<ellipse class="st9" cx="944.86" cy="664.31" rx="24.92" ry="20.56"/>
	<path class="st12" d="M1176.01,858.78H736.53c-4.02,0-7.31-3.29-7.31-7.31v-19.64c0-4.02,3.29-7.31,7.31-7.31h439.48
		c4.02,0,7.31,3.29,7.31,7.31v19.64C1183.32,855.49,1180.03,858.78,1176.01,858.78z"/>
	<g class="st6">
		<polygon class="st10" points="876.17,700.84 832.86,815.05 962.01,815.05 962.01,700.84 		"/>
		<polygon class="st10" points="1047.84,700.84 1091.15,815.05 962.01,815.05 962.01,700.84 		"/>
	</g>
</g>
<g id="Layer_6">
	<rect x="464.49" y="175.07" class="st9" width="965.03" height="418.75"/>
	<rect x="464.49" y="175.07" class="st13" width="965.03" height="37.85"/>
	<ellipse class="st14" cx="496.04" cy="194" rx="10.04" ry="8.28"/>
	<ellipse class="st15" cx="527.59" cy="194" rx="10.04" ry="8.28"/>
	<ellipse class="st16" cx="557.7" cy="194" rx="10.04" ry="8.28"/>
	<path class="st17" d="M749.32,338.31H510.91c-6.6,0-12-5.4-12-12v-70.63c0-6.6,5.4-12,12-12h238.41c6.6,0,12,5.4,12,12v70.63
		C761.32,332.91,755.92,338.31,749.32,338.31z"/>
	<rect x="792.35" y="250.17" class="st18" width="215.36" height="13.01"/>
	<rect x="792.35" y="273.82" class="st18" width="594.16" height="13.01"/>
	<rect x="793.89" y="296.91" class="st18" width="594.16" height="13.01"/>
	<rect x="793.89" y="320.57" class="st18" width="594.16" height="13.01"/>
	<path class="st19" d="M749.32,450.69H510.91c-6.6,0-12-5.4-12-12v-70.63c0-6.6,5.4-12,12-12h238.41c6.6,0,12,5.4,12,12v70.63
		C761.32,445.29,755.92,450.69,749.32,450.69z"/>
	<path class="st20" d="M749.32,567.8H510.91c-6.6,0-12-5.4-12-12v-70.63c0-6.6,5.4-12,12-12h238.41c6.6,0,12,5.4,12,12v70.63
		C761.32,562.4,755.92,567.8,749.32,567.8z"/>
	<rect x="793.78" y="362.54" class="st18" width="215.36" height="13.01"/>
	<rect x="793.78" y="386.2" class="st18" width="594.16" height="13.01"/>
	<rect x="795.33" y="409.29" class="st18" width="594.16" height="13.01"/>
	<rect x="795.33" y="432.95" class="st18" width="594.16" height="13.01"/>
	<rect x="795.21" y="476.1" class="st18" width="215.36" height="13.01"/>
	<rect x="795.21" y="499.76" class="st18" width="594.16" height="13.01"/>
	<rect x="796.76" y="522.85" class="st18" width="594.16" height="13.01"/>
	<rect x="796.76" y="546.51" class="st18" width="594.16" height="13.01"/>
</g>
<g id="File_1">
	<polygon class="st21" points="288.53,541.77 573.47,541.77 573.47,917.94 225.03,917.94 225.03,600.9 	"/>
	<polygon class="st21" points="225.03,600.92 289.15,600.92 289.15,541.77 	"/>
	<rect x="333.92" y="655.33" class="st18" width="215.36" height="13.01"/>
	<rect x="263.75" y="695.55" class="st18" width="285.53" height="13.01"/>
	<rect x="263.75" y="780.72" class="st18" width="166.96" height="13.01"/>
	<rect x="263.75" y="799.65" class="st18" width="166.96" height="13.01"/>
	<rect x="263.75" y="818.58" class="st18" width="166.96" height="13.01"/>
	<rect x="263.75" y="837.5" class="st18" width="166.96" height="13.01"/>
	<rect x="263.75" y="856.43" class="st18" width="166.96" height="13.01"/>
	<rect x="263.75" y="875.36" class="st18" width="166.96" height="13.01"/>
	<rect x="263.75" y="716.85" class="st18" width="285.53" height="13.01"/>
	<rect x="263.75" y="738.14" class="st18" width="285.53" height="13.01"/>
	<rect x="333.92" y="634.04" class="st18" width="215.36" height="13.01"/>
	<g class="st22">
		<polygon class="st21" points="297.83,550.03 582.77,550.03 582.77,926.2 234.33,926.2 234.33,609.16 		"/>
		<polygon class="st21" points="234.33,609.18 298.45,609.18 298.45,550.03 		"/>
		<rect x="343.22" y="663.59" class="st18" width="215.36" height="13.01"/>
		<rect x="273.04" y="703.81" class="st18" width="285.53" height="13.01"/>
		<rect x="273.04" y="788.98" class="st18" width="166.96" height="13.01"/>
		<rect x="273.04" y="807.91" class="st18" width="166.96" height="13.01"/>
		<rect x="273.04" y="826.84" class="st18" width="166.96" height="13.01"/>
		<rect x="273.04" y="845.76" class="st18" width="166.96" height="13.01"/>
		<rect x="273.04" y="864.69" class="st18" width="166.96" height="13.01"/>
		<rect x="273.04" y="883.62" class="st18" width="166.96" height="13.01"/>
		<rect x="273.04" y="725.11" class="st18" width="285.53" height="13.01"/>
		<rect x="273.04" y="746.4" class="st18" width="285.53" height="13.01"/>
		<rect x="343.22" y="642.3" class="st18" width="215.36" height="13.01"/>
		<path class="st18" d="M546.57,898.99h-78.84c-6.6,0-12-5.4-12-12v-95.47c0-6.6,5.4-12,12-12h78.84c6.6,0,12,5.4,12,12v95.47
			C558.57,893.59,553.17,898.99,546.57,898.99z"/>
		<ellipse class="st18" cx="302.44" cy="660.64" rx="27.96" ry="23.07"/>
	</g>
	<path class="st18" d="M538.71,897.83h-78.84c-6.6,0-12-5.4-12-12v-95.47c0-6.6,5.4-12,12-12h78.84c6.6,0,12,5.4,12,12v95.47
		C550.71,892.43,545.31,897.83,538.71,897.83z"/>
	<ellipse class="st18" cx="293.14" cy="652.38" rx="27.96" ry="23.07"/>
</g>
<g id="Layer_8">
	<g class="st23">
		<path class="st24" d="M1798.56,494.5h-664.28c-6.6,0-12-5.4-12-12v-89.1c0-6.6,5.4-12,12-12h664.28c6.6,0,12,5.4,12,12v89.1
			C1810.56,489.1,1805.16,494.5,1798.56,494.5z"/>
		<path class="st25" d="M1779.92,481.95h-493.65c-6.6,0-12-5.4-12-12V407.6c0-6.6,5.4-12,12-12h493.65c6.6,0,12,5.4,12,12v62.35
			C1791.92,476.55,1786.52,481.95,1779.92,481.95z"/>
		<ellipse class="st26" cx="1204.01" cy="438.18" rx="45.89" ry="37.85"/>
		<path class="st19" d="M1177.66,469.25c0,0,0.86-29.88,26.35-29.88c25.49,0,26.36,29.88,26.36,29.88s-9.79,6.79-26.36,6.79
			S1177.66,469.25,1177.66,469.25z"/>
		<ellipse class="st10" cx="1204.01" cy="428.72" rx="15.77" ry="13.01"/>
		<rect x="1306.38" y="410.22" class="st18" width="215.36" height="13.01"/>
		<rect x="1306.38" y="433.88" class="st18" width="451.13" height="13.01"/>
		<rect x="1306.38" y="456.35" class="st18" width="451.13" height="13.01"/>
	</g>
	<path class="st24" d="M1790.34,486.9h-664.28c-6.6,0-12-5.4-12-12v-89.1c0-6.6,5.4-12,12-12h664.28c6.6,0,12,5.4,12,12v89.1
		C1802.34,481.5,1796.94,486.9,1790.34,486.9z"/>
	<path class="st25" d="M1771.7,474.35h-493.64c-6.6,0-12-5.4-12-12v-62.35c0-6.6,5.4-12,12-12h493.64c6.6,0,12,5.4,12,12v62.35
		C1783.7,468.95,1778.3,474.35,1771.7,474.35z"/>
	<ellipse class="st26" cx="1195.79" cy="430.58" rx="45.89" ry="37.85"/>
	<path class="st19" d="M1169.44,461.64c0,0,0.86-29.88,26.35-29.88c25.49,0,26.36,29.88,26.36,29.88s-9.79,6.79-26.36,6.79
		C1179.22,468.43,1169.44,461.64,1169.44,461.64z"/>
	<ellipse class="st10" cx="1195.79" cy="421.12" rx="15.77" ry="13.01"/>
	<rect x="1298.16" y="402.61" class="st18" width="215.36" height="13.01"/>
	<rect x="1298.16" y="426.27" class="st18" width="451.13" height="13.01"/>
	<rect x="1298.16" y="448.75" class="st18" width="451.13" height="13.01"/>
</g>
<g id="Layer_9">
	<g class="st23">
		<path class="st27" d="M925.83,800.05v159.71c0,7.81,7.74,14.2,17.21,14.2h430.18c9.46,0,17.21-6.39,17.21-14.2V769.32
			c0-7.81-7.74-14.19-17.21-14.19h-263.44c0,0-17.61-2.37-17.61,10.65v20.11c0,0,1.43,8.28-7.17,8.28s-146.26,0-146.26,0
			s-12.91-1.18-12.91,5.91"/>
		<path class="st25" d="M1348.31,953.85h-57.73c-6.6,0-12-5.4-12-12V797.88c0-6.6,5.4-12,12-12h57.73c6.6,0,12,5.4,12,12v143.97
			C1360.31,948.45,1354.91,953.85,1348.31,953.85z"/>
		<rect x="925.83" y="895.89" class="st25" width="80.3" height="59.15"/>
		<ellipse class="st28" cx="966.7" cy="926.05" rx="26.53" ry="21.88"/>
		<path class="st29" d="M988.47,938.62c0,0-20.94-0.41-20.94-12.57c0-12.16,20.94-12.57,20.94-12.57s4.76,4.67,4.76,12.57
			S988.47,938.62,988.47,938.62z"/>
		<ellipse class="st10" cx="960.07" cy="926.05" rx="9.12" ry="7.52"/>
	</g>
	<path class="st27" d="M913.31,788.98V948.7c0,7.81,7.74,14.2,17.21,14.2h430.18c9.46,0,17.21-6.39,17.21-14.2V758.25
		c0-7.81-7.74-14.19-17.21-14.19h-263.44c0,0-17.61-2.37-17.61,10.65v20.11c0,0,1.43,8.28-7.17,8.28s-146.26,0-146.26,0
		s-12.91-1.18-12.91,5.91"/>
	<path class="st25" d="M1335.79,942.78h-57.73c-6.6,0-12-5.4-12-12V786.81c0-6.6,5.4-12,12-12h57.73c6.6,0,12,5.4,12,12v143.97
		C1347.79,937.38,1342.39,942.78,1335.79,942.78z"/>
	<rect x="913.31" y="884.82" class="st25" width="80.3" height="59.15"/>
	<ellipse class="st28" cx="954.18" cy="914.98" rx="26.53" ry="21.88"/>
	<path class="st29" d="M975.95,927.55c0,0-20.94-0.41-20.94-12.57c0-12.16,20.94-12.57,20.94-12.57s4.76,4.67,4.76,12.57
		S975.95,927.55,975.95,927.55z"/>
	<ellipse class="st10" cx="947.55" cy="914.98" rx="9.12" ry="7.52"/>
</g>
<g id="Magnifying_glass">
	<g class="st22">
		<polygon class="st30" points="1538.59,223.81 1515.66,194.91 1541.66,180.87 1564.59,209.77 		"/>
		<ellipse class="st31" cx="1472.67" cy="119.13" rx="106.83" ry="88.13"/>
		<ellipse class="st32" cx="1472.3" cy="119.41" rx="99.31" ry="81.93"/>
		<path class="st33" d="M1472.93,49.46c39.25,0,72.22,22.16,81.53,52.14"/>
		<path class="st34" d="M1468.63,188.33"/>
		<path class="st35" d="M1534.22,225.33l67.66,75.55l0.06-0.04c5.27,4.69,18.98,7.31,27.95,1.84c9.09-5.54,11.66-15.46,6.09-22.59
			l0.05-0.03l-67.66-75.55L1534.22,225.33z"/>
	</g>
	<polygon class="st30" points="1528.76,227.2 1505.83,198.3 1531.83,184.26 1554.76,213.15 	"/>
	<ellipse class="st31" cx="1462.84" cy="122.51" rx="106.83" ry="88.13"/>
	<ellipse class="st32" cx="1462.47" cy="122.8" rx="99.31" ry="81.93"/>
	<path class="st33" d="M1463.1,52.85c39.25,0,72.22,22.16,81.53,52.14"/>
	<path class="st34" d="M1458.8,191.72"/>
	<path class="st35" d="M1524.39,228.72l67.66,75.55l0.06-0.04c5.27,4.69,18.98,7.31,27.95,1.84c9.09-5.54,11.66-15.46,6.09-22.59
		l0.05-0.03l-67.66-75.55L1524.39,228.72z"/>
</g>
<g id="Case">
	<g class="st22">
		<path class="st36" d="M1550.57,657.49c0,0,7.35-51.55-78.11-51.55c-85.46,0-82.7,51.55-82.7,51.55h21.13
			c0,0-8.27-38.66,59.73-39.42c68-0.76,62.49,39.42,62.49,39.42H1550.57z"/>
		<rect x="1271.77" y="658.74" class="st37" width="392.89" height="208.01"/>
		<rect x="1275.89" y="662.82" class="st38" width="383.81" height="89.2"/>
		<path class="st39" d="M1371.32,773.19h-14.03c-3.72,0-6.77-3.05-6.77-6.77v-32.7c0-3.72,3.05-6.77,6.77-6.77h14.03
			c3.72,0,6.77,3.05,6.77,6.77v32.7C1378.09,770.14,1375.05,773.19,1371.32,773.19z"/>
		<path class="st39" d="M1582.47,774.24h-14.03c-3.72,0-6.77-3.05-6.77-6.77v-32.7c0-3.72,3.05-6.77,6.77-6.77h14.03
			c3.72,0,6.77,3.05,6.77,6.77v32.7C1589.24,771.19,1586.19,774.24,1582.47,774.24z"/>
	</g>
	<path class="st36" d="M1540.55,649.34c0,0,7.35-51.55-78.11-51.55s-82.7,51.55-82.7,51.55h21.13c0,0-8.27-38.66,59.73-39.42
		c68-0.76,62.49,39.42,62.49,39.42H1540.55z"/>
	<rect x="1261.75" y="650.59" class="st37" width="392.89" height="208.01"/>
	<rect x="1265.88" y="654.68" class="st38" width="383.81" height="89.2"/>
	<path class="st39" d="M1361.31,765.04h-14.03c-3.72,0-6.77-3.05-6.77-6.77v-32.7c0-3.72,3.05-6.77,6.77-6.77h14.03
		c3.72,0,6.77,3.05,6.77,6.77v32.7C1368.08,761.99,1365.03,765.04,1361.31,765.04z"/>
	<path class="st39" d="M1572.45,766.09h-14.03c-3.72,0-6.77-3.05-6.77-6.77v-32.7c0-3.72,3.05-6.77,6.77-6.77h14.03
		c3.72,0,6.77,3.05,6.77,6.77v32.7C1579.22,763.04,1576.18,766.09,1572.45,766.09z"/>
</g>
<g id="Layer_10">
	<g class="st40">
		<path class="st41" d="M659.32,901.24c-25.25-12.51-42.14-35.32-42.14-61.39c0-39.53,38.84-71.57,86.75-71.57
			s86.75,32.04,86.75,71.57c0,25.68-16.4,48.21-41.03,60.83l0.16,32.62h-90.34L659.32,901.24z"/>
		<path class="st42" d="M749.82,952.62c0,17.42-20.06,31.54-44.81,31.54s-44.81-14.12-44.81-31.54v-18.73h89.62V952.62z"/>
		<path class="st7" d="M706.45,746.99h-2.17c-1.38,0-2.5-1.13-2.5-2.5v-52.96c0-1.38,1.13-2.5,2.5-2.5h2.17c1.38,0,2.5,1.13,2.5,2.5
			v52.96C708.95,745.86,707.83,746.99,706.45,746.99z"/>
		<path class="st7" d="M625.54,766.89L625.54,766.89c-1.39,1.15-3.68,1.15-5.07,0l-44.61-36.8c-1.39-1.15-1.39-3.03,0-4.18l0,0
			c1.39-1.15,3.68-1.15,5.07,0l44.61,36.8C626.93,763.86,626.93,765.74,625.54,766.89z"/>
		<path class="st7" d="M581.34,835.84v0.91c0,1.38-1.12,2.5-2.5,2.5h-65.26c-1.38,0-2.5-1.13-2.5-2.5v-0.91c0-1.38,1.13-2.5,2.5-2.5
			h65.26C580.21,833.34,581.34,834.47,581.34,835.84z"/>
		<path class="st7" d="M606.16,899.77L606.16,899.77c-1.39-1.15-3.68-1.15-5.07,0l-44.61,36.8c-1.39,1.15-1.39,3.03,0,4.18l0,0
			c1.39,1.15,3.68,1.15,5.07,0l44.61-36.8C607.55,902.81,607.55,900.92,606.16,899.77z"/>
		<path class="st7" d="M780.9,766.89L780.9,766.89c1.39,1.15,3.68,1.15,5.07,0l44.61-36.8c1.39-1.15,1.39-3.03,0-4.18l0,0
			c-1.39-1.15-3.68-1.15-5.07,0l-44.61,36.8C779.51,763.86,779.51,765.74,780.9,766.89z"/>
		<path class="st7" d="M825.1,835.84v0.91c0,1.38,1.13,2.5,2.5,2.5h65.26c1.38,0,2.5-1.13,2.5-2.5v-0.91c0-1.38-1.13-2.5-2.5-2.5
			H827.6C826.23,833.34,825.1,834.47,825.1,835.84z"/>
		<path class="st7" d="M800.28,899.77L800.28,899.77c1.39-1.15,3.68-1.15,5.07,0l44.61,36.8c1.39,1.15,1.39,3.03,0,4.18l0,0
			c-1.39,1.15-3.68,1.15-5.07,0l-44.61-36.8C798.89,902.81,798.89,900.92,800.28,899.77z"/>
		<path class="st27" d="M758.98,801.05c0,0-19.32-9.12-20.68,8.94c0,0,49.64,25.55,28.91,57.73
			C767.21,867.71,791.37,838.73,758.98,801.05z"/>
	</g>
	<path class="st41" d="M655.76,893.57c-25.25-12.51-42.14-35.32-42.14-61.39c0-39.53,38.84-71.57,86.75-71.57
		c47.91,0,86.75,32.04,86.75,71.57c0,25.68-16.4,48.21-41.03,60.83l0.16,32.62h-90.34L655.76,893.57z"/>
	<path class="st42" d="M746.26,944.95c0,17.42-20.06,31.54-44.81,31.54c-24.75,0-44.81-14.12-44.81-31.54v-18.73h89.62V944.95z"/>
	<path class="st7" d="M702.89,739.32h-2.17c-1.38,0-2.5-1.13-2.5-2.5v-52.96c0-1.38,1.13-2.5,2.5-2.5h2.17c1.38,0,2.5,1.13,2.5,2.5
		v52.96C705.39,738.2,704.27,739.32,702.89,739.32z"/>
	<path class="st7" d="M621.97,759.22L621.97,759.22c-1.39,1.15-3.68,1.15-5.07,0l-44.61-36.8c-1.39-1.15-1.39-3.03,0-4.18l0,0
		c1.39-1.15,3.68-1.15,5.07,0l44.61,36.8C623.37,756.19,623.37,758.07,621.97,759.22z"/>
	<path class="st7" d="M577.77,828.17v0.91c0,1.38-1.13,2.5-2.5,2.5h-65.26c-1.38,0-2.5-1.13-2.5-2.5v-0.91c0-1.38,1.13-2.5,2.5-2.5
		h65.26C576.65,825.67,577.77,826.8,577.77,828.17z"/>
	<path class="st7" d="M602.59,892.11L602.59,892.11c-1.39-1.15-3.68-1.15-5.07,0l-44.61,36.8c-1.39,1.15-1.39,3.03,0,4.18l0,0
		c1.39,1.15,3.68,1.15,5.07,0l44.61-36.8C603.99,895.14,603.99,893.26,602.59,892.11z"/>
	<path class="st7" d="M777.34,759.22L777.34,759.22c1.39,1.15,3.68,1.15,5.07,0l44.61-36.8c1.39-1.15,1.39-3.03,0-4.18l0,0
		c-1.39-1.15-3.68-1.15-5.07,0l-44.61,36.8C775.95,756.19,775.95,758.07,777.34,759.22z"/>
	<path class="st7" d="M821.54,828.17v0.91c0,1.38,1.13,2.5,2.5,2.5h65.26c1.38,0,2.5-1.13,2.5-2.5v-0.91c0-1.38-1.13-2.5-2.5-2.5
		h-65.26C822.67,825.67,821.54,826.8,821.54,828.17z"/>
	<path class="st7" d="M796.72,892.11L796.72,892.11c1.39-1.15,3.68-1.15,5.07,0l44.61,36.8c1.39,1.15,1.39,3.03,0,4.18l0,0
		c-1.39,1.15-3.68,1.15-5.07,0l-44.61-36.8C795.33,895.14,795.33,893.26,796.72,892.11z"/>
	<path class="st27" d="M755.42,793.38c0,0-19.32-9.12-20.68,8.94c0,0,49.64,25.55,28.91,57.73
		C763.65,860.04,787.8,831.06,755.42,793.38z"/>
</g>
</svg>
