<svg xmlns="http://www.w3.org/2000/svg" viewBox="0 0 35.4 41.95"><defs><style>.cls-1{fill:none;stroke-width:2px;}.cls-1,.cls-5{stroke:#213354;}.cls-1,.cls-4,.cls-5{stroke-miterlimit:10;}.cls-2{fill:#213354;}.cls-3,.cls-4,.cls-5,.cls-6{fill:#fff;}.cls-4{stroke:#010101;}.cls-4,.cls-5{stroke-width:0.25px;}.cls-6{font-size:8.08px;font-family:Montserrat-Bold, Montserrat;font-weight:700;}</style></defs><title>likhainLogo</title><g id="Layer_2" data-name="Layer 2"><g id="Layer_1-2" data-name="Layer 1"><circle class="cls-1" cx="17.56" cy="15.18" r="14.18"/><path class="cls-2" d="M5.55,23.84l-3,3A2.31,2.31,0,0,0,2.41,30a2.6,2.6,0,0,0,3.68.32L9,27.41Z"/><path class="cls-3" d="M21.13,10.11c0-.11-.21-.26-.21-.26V7.75a3.2,3.2,0,0,0-3-2,3.25,3.25,0,0,0-3.1,2v2.1s-.21.15-.21.26-.11,1,.52,1.36a3.43,3.43,0,0,0,2.73,2.93h.11a3.41,3.41,0,0,0,2.68-2.93C21.23,11.11,21.13,10.21,21.13,10.11Z"/><path class="cls-3" d="M15.17,14.81s-2.15,1-2.47,1a3.16,3.16,0,0,0-2,1.63,26.74,26.74,0,0,0-.15,4.78s.1.21.21.21h1.52l-.58-3.94s-.15-1.05,1.26-1.32h4.26A11.74,11.74,0,0,1,15.17,14.81Z"/><path class="cls-3" d="M20.47,14.81s2.17,1,2.49,1A3.16,3.16,0,0,1,25,17.49a26,26,0,0,1,.16,4.78s-.11.21-.21.21H23.44L24,18.54s.16-1.05-1.27-1.32h-4.3A11.58,11.58,0,0,0,20.47,14.81Z"/><path class="cls-3" d="M23.24,23.74h-1.3c.83-.16.78-.63.78-.63l.67-4.62a.82.82,0,0,0-.78-.58H13.12a.82.82,0,0,0-.78.58L13,23.11s0,.47.79.63H12.49s-.21.1-.21.21v.57s.06.16.16.16H23.29c.1,0,.15-.16.15-.16V24C23.44,23.84,23.24,23.74,23.24,23.74Z"/><rect class="cls-2" x="23.18" y="11.71" width="2.16" height="2.16"/><rect class="cls-4" x="28.13" y="8.15" width="1.54" height="1.49"/><rect class="cls-4" x="27.51" y="4.9" width="2.16" height="2.16"/><rect class="cls-2" x="24.26" y="5.44" width="2.16" height="2.16"/><rect class="cls-3" x="23.83" y="8.9" width="1.52" height="1.52"/><rect class="cls-5" x="26.19" y="9.33" width="1.52" height="1.52"/><text class="cls-6" transform="translate(0 39.8)">LIKHAIN</text></g></g></svg>