<svg id="Layer_1" data-name="Layer 1" xmlns="http://www.w3.org/2000/svg" xmlns:xlink="http://www.w3.org/1999/xlink" viewBox="0 0 1222.96 640"><defs><style>.cls-1,.cls-4{fill:none;}.cls-2{font-size:94px;font-family:Montserrat-Regular, Montserrat;}.cls-3{clip-path:url(#clip-path);}.cls-4{stroke:#203354;stroke-width:18px;}.cls-4,.cls-7{stroke-miterlimit:10;}.cls-5{fill:#203354;}.cls-6{fill:#6aa3df;}.cls-7{fill:#fff;stroke:#000;}</style><clipPath id="clip-path"><rect class="cls-1" x="-54.69" y="103.62" width="1376.62" height="1492.28"/></clipPath></defs><title>likhainLogoRevised-01</title><text class="cls-2" transform="translate(400 310)">LIKHAINWORKS</text><g class="cls-3"><circle class="cls-4" cx="200.22" cy="283.97" r="123.55" transform="translate(-91.37 472.92) rotate(-87.76)"/><path class="cls-5" d="M95.58,363.32,69.17,389.73s-13.2,14.15-.94,27.35,26.41,7.54,32.07,2.83l25.46-25.46Z"/><path class="cls-6" d="M231.33,239.8c0-.92-1.8-2.29-1.8-2.29V219.2C222.58,202.13,206,201.73,203,201.79s-19.92.34-27,17.41v18.31s-1.83,1.37-1.83,2.29-.92,8.7,4.57,11.9c0,0,2.69,22.22,23.8,25.49v.14l.46-.07.46.07v-.15c20.73-3.27,23.37-25.48,23.37-25.48C232.23,248.5,231.33,240.71,231.33,239.8Z"/><path class="cls-6" d="M179.44,280.76s-18.76,8.7-21.51,9.16-15.11,5.49-17.85,14.19-1.37,41.64-1.37,41.64.91,1.84,1.83,1.84h13.27l-5-34.33s-1.38-9.15,11-11.44h37.07s-12.35-11.45-17.39-21.06"/><path class="cls-6" d="M225.61,280.76s18.95,8.7,21.72,9.16,15.25,5.49,18,14.19,1.38,41.64,1.38,41.64-.92,1.84-1.85,1.84h-13.4l5.08-34.33s1.39-9.15-11.09-11.44H208.05s12.47-11.45,17.56-21.06"/><path class="cls-6" d="M249.72,358.57H238.44c7.22-1.37,6.77-5.49,6.77-5.49l5.87-40.28c-1.36-5-6.77-5-6.77-5H161.59s-5.49,0-6.86,5l6,40.28s-.46,4.12,6.86,5.49H156.1s-1.83.92-1.83,1.83v5s.46,1.37,1.37,1.37h94.53c.91,0,1.36-1.37,1.36-1.37v-5C251.53,359.49,249.72,358.57,249.72,358.57Z"/></g><rect class="cls-5" x="245.01" y="248.09" width="19.49" height="19.49"/><rect class="cls-7" x="289.59" y="216.03" width="13.85" height="13.42"/><rect class="cls-7" x="284" y="186.68" width="19.49" height="19.49"/><rect class="cls-5" x="254.76" y="191.55" width="19.49" height="19.49"/><rect class="cls-6" x="250.86" y="222.75" width="13.65" height="13.65"/><rect class="cls-6" x="272.08" y="226.6" width="13.65" height="13.65"/></svg>