<svg xmlns="http://www.w3.org/2000/svg" viewBox="0 0 738.86 877.13"><defs><style>.cls-1{fill:none;stroke:#203354;stroke-width:45px;}.cls-1,.cls-4{stroke-miterlimit:10;}.cls-2{fill:#203354;}.cls-3{fill:#6aa3df;}.cls-4{fill:#fff;stroke:#000;stroke-width:3px;}.cls-5{font-size:168.62px;font-family:Montserrat-Bold, Montserrat;font-weight:700;}</style></defs><g id="Layer_2" data-name="Layer 2"><g id="Layer_2-2" data-name="Layer 2"><circle class="cls-1" cx="366.42" cy="318.39" r="295.89"/><path class="cls-2" d="M115.82,508.45,52.57,571.7S21,605.58,50.31,637.2s63.25,18.07,76.8,6.78l61-61Z"/><path class="cls-3" d="M440.94,212.61c0-2.19-4.31-5.48-4.31-5.48V163.29c-16.65-40.88-56.46-41.86-63.53-41.7-7.19-.16-47.71.82-64.66,41.7v43.84s-4.39,3.29-4.39,5.48-2.19,20.83,11,28.5c0,0,6.4,53.28,57,61.08v.31l1.08-.16,1.11.16v-.32c49.68-7.82,56-61.07,56-61.07C443.09,233.44,440.94,214.81,440.94,212.61Z"/><path class="cls-3" d="M316.66,310.72s-44.94,20.83-51.52,21.92-36.17,13.16-42.75,34-3.29,99.75-3.29,99.75,2.19,4.38,4.38,4.38h31.79l-12.05-82.21s-3.29-21.92,26.3-27.41h88.79S328.72,333.74,316.66,310.72Z"/><path class="cls-3" d="M427.23,310.72s45.39,20.83,52,21.92,36.52,13.16,43.17,34,3.32,99.75,3.32,99.75-2.22,4.38-4.43,4.38h-32.1l12.17-82.21s3.33-21.92-26.56-27.41H385.17S415.06,333.74,427.23,310.72Z"/><path class="cls-3" d="M485,497.07H458c17.3-3.29,16.22-13.15,16.22-13.15l14.05-96.47C485,375.39,472,375.39,472,375.39H273.91s-13.16,0-16.44,12.06l14.25,96.47s-1.1,9.86,16.44,13.15H260.75s-4.38,2.19-4.38,4.38v12.06s1.1,3.29,3.29,3.29h226.4c2.17,0,3.25-3.29,3.25-3.29V501.45C489.31,499.26,485,497.07,485,497.07Z"/><rect class="cls-2" x="483.87" y="246.11" width="45.17" height="45.17"/><rect class="cls-4" x="587.18" y="171.82" width="32.1" height="31.1"/><rect class="cls-4" x="574.22" y="103.81" width="45.17" height="45.17"/><rect class="cls-2" x="506.46" y="115.11" width="45.17" height="45.17"/><rect class="cls-3" x="497.42" y="187.39" width="31.62" height="31.62"/><rect class="cls-3" x="546.59" y="196.32" width="31.62" height="31.62"/><text class="cls-5" transform="translate(0 832.28)">LIKHAIN</text></g></g></svg>